<svg width="30" height="30" viewBox="0 0 30 30" fill="none" xmlns="http://www.w3.org/2000/svg">
<circle cx="15" cy="15" r="15" fill="#F50202" fill-opacity="0.45"/>
<g clip-path="url(#clip0_22_124)">
<path d="M24.5625 6.59375H18.0219C17.8569 5.78136 17.4162 5.05097 16.7743 4.52635C16.1325 4.00174 15.329 3.71515 14.5 3.71515C13.671 3.71515 12.8675 4.00174 12.2257 4.52635C11.5838 5.05097 11.1431 5.78136 10.9781 6.59375H4.4375C4.24688 6.59375 4.06406 6.66948 3.92927 6.80427C3.79448 6.93906 3.71875 7.12188 3.71875 7.3125C3.71875 7.50312 3.79448 7.68594 3.92927 7.82073C4.06406 7.95552 4.24688 8.03125 4.4375 8.03125H24.5625C24.7531 8.03125 24.9359 7.95552 25.0707 7.82073C25.2055 7.68594 25.2812 7.50312 25.2812 7.3125C25.2812 7.12188 25.2055 6.93906 25.0707 6.80427C24.9359 6.66948 24.7531 6.59375 24.5625 6.59375ZM14.5 5.15625C14.9449 5.1575 15.3785 5.29632 15.7413 5.55368C16.1042 5.81103 16.3786 6.17432 16.5269 6.59375H12.4731C12.6214 6.17432 12.8958 5.81103 13.2587 5.55368C13.6215 5.29632 14.0551 5.1575 14.5 5.15625ZM21.9606 9.52625C21.8297 9.47121 21.6855 9.45617 21.546 9.48303C21.4066 9.50989 21.2783 9.57745 21.1772 9.67719C21.1106 9.74435 21.0579 9.824 21.0221 9.91157C20.9863 9.99914 20.9682 10.0929 20.9688 10.1875C20.9688 10.3781 21.0445 10.5609 21.1793 10.6957C21.3141 10.8305 21.4969 10.9062 21.6875 10.9062C21.8781 10.9062 22.0609 10.8305 22.1957 10.6957C22.3305 10.5609 22.4062 10.3781 22.4062 10.1875C22.4036 9.9972 22.3292 9.81492 22.1978 9.67719C22.1295 9.61175 22.0489 9.56046 21.9606 9.52625ZM21.6875 12.3437C21.4969 12.3437 21.3141 12.4195 21.1793 12.5543C21.0445 12.6891 20.9688 12.8719 20.9688 13.0625V15.2187C20.9688 15.4094 21.0445 15.5922 21.1793 15.727C21.3141 15.8618 21.4969 15.9375 21.6875 15.9375C21.8781 15.9375 22.0609 15.8618 22.1957 15.727C22.3305 15.5922 22.4062 15.4094 22.4062 15.2187V13.0625C22.4062 12.8719 22.3305 12.6891 22.1957 12.5543C22.0609 12.4195 21.8781 12.3437 21.6875 12.3437ZM21.6875 17.375C21.4969 17.375 21.3141 17.4507 21.1793 17.5855C21.0445 17.7203 20.9688 17.9031 20.9688 18.0937V23.125C20.9688 23.3156 20.893 23.4984 20.7582 23.6332C20.6234 23.768 20.4406 23.8437 20.25 23.8437H8.75C8.55938 23.8437 8.37656 23.768 8.24177 23.6332C8.10698 23.4984 8.03125 23.3156 8.03125 23.125V10.1875C8.03125 9.99687 7.95552 9.81406 7.82073 9.67927C7.68594 9.54447 7.50312 9.46875 7.3125 9.46875C7.12188 9.46875 6.93906 9.54447 6.80427 9.67927C6.66948 9.81406 6.59375 9.99687 6.59375 10.1875V23.125C6.59375 23.6969 6.82093 24.2453 7.2253 24.6497C7.62968 25.0541 8.17813 25.2812 8.75 25.2812H20.25C20.8219 25.2812 21.3703 25.0541 21.7747 24.6497C22.1791 24.2453 22.4062 23.6969 22.4062 23.125V18.0937C22.4062 17.9031 22.3305 17.7203 22.1957 17.5855C22.0609 17.4507 21.8781 17.375 21.6875 17.375Z" fill="white"/>
<path d="M11.625 20.25V10.9062C11.625 10.7156 11.5493 10.5328 11.4145 10.398C11.2797 10.2632 11.0969 10.1875 10.9062 10.1875C10.7156 10.1875 10.5328 10.2632 10.398 10.398C10.2632 10.5328 10.1875 10.7156 10.1875 10.9062V20.25C10.1875 20.4406 10.2632 20.6234 10.398 20.7582C10.5328 20.893 10.7156 20.9688 10.9062 20.9688C11.0969 20.9688 11.2797 20.893 11.4145 20.7582C11.5493 20.6234 11.625 20.4406 11.625 20.25ZM15.2188 20.25V10.9062C15.2188 10.7156 15.143 10.5328 15.0082 10.398C14.8734 10.2632 14.6906 10.1875 14.5 10.1875C14.3094 10.1875 14.1266 10.2632 13.9918 10.398C13.857 10.5328 13.7812 10.7156 13.7812 10.9062V20.25C13.7812 20.4406 13.857 20.6234 13.9918 20.7582C14.1266 20.893 14.3094 20.9688 14.5 20.9688C14.6906 20.9688 14.8734 20.893 15.0082 20.7582C15.143 20.6234 15.2188 20.4406 15.2188 20.25ZM18.8125 20.25V10.9062C18.8125 10.7156 18.7368 10.5328 18.602 10.398C18.4672 10.2632 18.2844 10.1875 18.0938 10.1875C17.9031 10.1875 17.7203 10.2632 17.5855 10.398C17.4507 10.5328 17.375 10.7156 17.375 10.9062V20.25C17.375 20.4406 17.4507 20.6234 17.5855 20.7582C17.7203 20.893 17.9031 20.9688 18.0938 20.9688C18.2844 20.9688 18.4672 20.893 18.602 20.7582C18.7368 20.6234 18.8125 20.4406 18.8125 20.25Z" fill="white"/>
</g>
<defs>
<clipPath id="clip0_22_124">
<rect width="23" height="23" fill="white" transform="translate(3 3)"/>
</clipPath>
</defs>
</svg>
