<svg width="28" height="28" viewBox="0 0 28 28" fill="none" xmlns="http://www.w3.org/2000/svg">
<circle cx="14" cy="14" r="14" fill="#82FF8B"/>
<path d="M23.5977 4C24.3681 4.72587 25.0562 5.53774 25.6465 6.4209L14.5518 18.999C13.4744 20.2204 11.6616 20.4011 10.3731 19.415L5.28907 15.5244C4.60188 14.9985 4.46235 14.0039 4.97755 13.3027C5.49301 12.6015 6.46799 12.4594 7.15528 12.9854L12.2393 16.876L23.5977 4ZM27.5537 10.6699C27.8451 11.7948 28 12.9745 28 14.1904C28 14.2025 27.9991 14.2145 27.999 14.2266C27.9967 12.9983 27.8418 11.8069 27.5537 10.6699ZM0.358409 11.0283C0.126129 12.0548 0.00244675 13.1237 1.01122e-05 14.2217C-1.26404e-05 14.2113 1.01122e-05 14.2008 1.01122e-05 14.1904C1.01122e-05 13.103 0.123811 12.0445 0.358409 11.0283Z" fill="white"/>
</svg>
