<svg width="30" height="30" viewBox="0 0 30 30" fill="none" xmlns="http://www.w3.org/2000/svg">
<circle cx="15" cy="15" r="14.5" fill="#00FF11" stroke="white"/>
<path fill-rule="evenodd" clip-rule="evenodd" d="M15 29C22.732 29 29 22.732 29 15C29 12.148 28.1472 9.49526 26.6827 7.28275L15.5522 19.65C14.4748 20.8472 12.6617 21.024 11.3731 20.0576L6.28889 16.2444C5.6016 15.7289 5.46231 14.7539 5.97778 14.0667C6.49324 13.3794 7.46826 13.24 8.15556 13.7556L13.2397 17.5687L24.6662 4.87263C22.1534 2.47338 18.7487 1 15 1C7.26802 1 1 7.26802 1 15C1 22.732 7.26802 29 15 29Z" fill="white"/>
</svg>
