<svg width="49" height="43" viewBox="0 0 49 43" fill="none" xmlns="http://www.w3.org/2000/svg">
<path d="M46.5004 7.25001H41.6115M46.5004 21.5H34.2781M46.5004 35.75H34.2781M12.2781 40.5V25.2079C12.2781 24.7139 12.2781 24.4669 12.2282 24.2305C12.184 24.0211 12.1107 23.8182 12.0105 23.6275C11.8976 23.4128 11.7388 23.22 11.4211 22.834L3.35741 13.0409C3.03976 12.6551 2.88094 12.4622 2.76798 12.2474C2.66779 12.0568 2.59455 11.854 2.55028 11.6444C2.50037 11.4081 2.50037 11.1611 2.50037 10.667V6.30001C2.50037 4.96989 2.50037 4.30482 2.76679 3.79679C3.00116 3.34991 3.37511 2.98658 3.83506 2.75886C4.35795 2.50001 5.04247 2.50001 6.41148 2.50001H27.9226C29.2917 2.50001 29.9762 2.50001 30.499 2.75886C30.9591 2.98658 31.3328 3.34991 31.5673 3.79679C31.8337 4.30482 31.8337 4.96989 31.8337 6.30001V10.667C31.8337 11.1611 31.8337 11.4081 31.7838 11.6444C31.7396 11.854 31.6663 12.0568 31.566 12.2474C31.4531 12.4622 31.2942 12.6551 30.9767 13.0409L22.9129 22.834C22.5954 23.22 22.4365 23.4128 22.3236 23.6275C22.2234 23.8182 22.15 24.0211 22.1058 24.2305C22.0559 24.4669 22.0559 24.7139 22.0559 25.2079V33.375L12.2781 40.5Z" stroke="white" stroke-width="5" stroke-linecap="round" stroke-linejoin="round"/>
</svg>
